<svg width="48" height="48" viewBox="0 0 48 48" fill="none" xmlns="http://www.w3.org/2000/svg">
<g filter="url(#filter0_d_8_1228)">
<circle cx="24" cy="20" r="20" fill="#FFF6FA" fill-opacity="0.9" shape-rendering="crispEdges"/>
<circle cx="24" cy="20" r="19.5" stroke="#EBCAD8" stroke-opacity="0.12" shape-rendering="crispEdges"/>
</g>
<path d="M22 17H24M24 15H28V19H24V15Z" stroke="#FAD4E8" stroke-width="2" stroke-linecap="round" stroke-linejoin="round"/>
<path d="M24 15C22.8 13.5 20.6 12 18 12C16.9 12 16 14.2 16 17C16 19.8 16.9 22 18 22C20.6 22 22.8 20.5 24 19M28 17H30M28 19C29.2 20.5 31.4 22 34 22C35.1 22 36 19.8 36 17C36 14.2 35.1 12 34 12C31.4 12 29.2 13.5 28 15" stroke="#FAD4E8" stroke-width="2" stroke-linecap="round" stroke-linejoin="round"/>
<path d="M19.5 21.83L18 28L21 27L23 29L25.5 19M32.5 21.83L34 28L31 27L29 29L26.5 19" stroke="#FAD4E8" stroke-width="2" stroke-linecap="round" stroke-linejoin="round"/>
<defs>
<filter id="filter0_d_8_1228" x="0" y="0" width="48" height="48" filterUnits="userSpaceOnUse" color-interpolation-filters="sRGB">
<feFlood flood-opacity="0" result="BackgroundImageFix"/>
<feColorMatrix in="SourceAlpha" type="matrix" values="0 0 0 0 0 0 0 0 0 0 0 0 0 0 0 0 0 0 127 0" result="hardAlpha"/>
<feOffset dy="4"/>
<feGaussianBlur stdDeviation="2"/>
<feComposite in2="hardAlpha" operator="out"/>
<feColorMatrix type="matrix" values="0 0 0 0 0 0 0 0 0 0 0 0 0 0 0 0 0 0 0.25 0"/>
<feBlend mode="normal" in2="BackgroundImageFix" result="effect1_dropShadow_8_1228"/>
<feBlend mode="normal" in="SourceGraphic" in2="effect1_dropShadow_8_1228" result="shape"/>
</filter>
</defs>
</svg>
