<svg width="48" height="48" viewBox="0 0 48 48" fill="none" xmlns="http://www.w3.org/2000/svg">
<g filter="url(#filter0_d_8_1229)">
<circle cx="24" cy="20" r="20" fill="#FFF6FA" fill-opacity="0.9" shape-rendering="crispEdges"/>
<circle cx="24" cy="20" r="19.5" stroke="#EBCAD8" stroke-opacity="0.12" shape-rendering="crispEdges"/>
</g>
<path d="M31.9 20.66C31.7397 20.4775 31.6513 20.2429 31.6513 20C31.6513 19.7571 31.7397 19.5225 31.9 19.34L33.18 17.9C33.321 17.7427 33.4086 17.5447 33.4302 17.3345C33.4517 17.1243 33.4062 16.9127 33.3 16.73L31.3 13.27C31.1949 13.0875 31.0349 12.9429 30.8427 12.8567C30.6506 12.7705 30.4362 12.7472 30.23 12.79L28.35 13.17C28.1108 13.2194 27.8617 13.1796 27.6499 13.058C27.438 12.9364 27.278 12.7415 27.2 12.51L26.59 10.68C26.5229 10.4814 26.3951 10.3089 26.2246 10.1868C26.0541 10.0648 25.8496 9.99946 25.64 10H21.64C21.4219 9.98862 21.2061 10.0489 21.0256 10.1717C20.845 10.2945 20.7096 10.473 20.64 10.68L20.08 12.51C20.002 12.7415 19.842 12.9364 19.6301 13.058C19.4182 13.1796 19.1692 13.2194 18.93 13.17L17 12.79C16.8045 12.7624 16.6053 12.7932 16.4273 12.8786C16.2494 12.9641 16.1007 13.1002 16 13.27L14 16.73C13.8911 16.9107 13.8422 17.1211 13.8602 17.3312C13.8781 17.5414 13.9621 17.7404 14.1 17.9L15.37 19.34C15.5303 19.5225 15.6187 19.7571 15.6187 20C15.6187 20.2429 15.5303 20.4775 15.37 20.66L14.1 22.1C13.9621 22.2596 13.8781 22.4586 13.8602 22.6688C13.8422 22.8789 13.8911 23.0894 14 23.27L16 26.73C16.1051 26.9125 16.2651 27.0571 16.4572 27.1433C16.6494 27.2295 16.8638 27.2528 17.07 27.21L18.95 26.83C19.1892 26.7806 19.4382 26.8204 19.6501 26.942C19.862 27.0636 20.022 27.2585 20.1 27.49L20.71 29.32C20.7796 29.527 20.915 29.7055 21.0956 29.8283C21.2761 29.9511 21.4919 30.0114 21.71 30H25.71C25.9196 30.0005 26.1241 29.9352 26.2946 29.8132C26.4651 29.6911 26.5929 29.5186 26.66 29.32L27.27 27.49C27.348 27.2585 27.508 27.0636 27.7199 26.942C27.9317 26.8204 28.1808 26.7806 28.42 26.83L30.3 27.21C30.5062 27.2528 30.7206 27.2295 30.9127 27.1433C31.1049 27.0571 31.2649 26.9125 31.37 26.73L33.37 23.27C33.4762 23.0873 33.5217 22.8757 33.5002 22.6655C33.4786 22.4553 33.391 22.2573 33.25 22.1L31.9 20.66ZM30.41 22L31.21 22.9L29.93 25.12L28.75 24.88C28.0298 24.7328 27.2806 24.8551 26.6446 25.2238C26.0086 25.5925 25.5301 26.1818 25.3 26.88L24.92 28H22.36L22 26.86C21.7698 26.1618 21.2914 25.5725 20.6554 25.2038C20.0194 24.8351 19.2702 24.7128 18.55 24.86L17.37 25.1L16.07 22.89L16.87 21.99C17.3619 21.44 17.6339 20.7279 17.6339 19.99C17.6339 19.2521 17.3619 18.54 16.87 17.99L16.07 17.09L17.35 14.89L18.53 15.13C19.2502 15.2772 19.9994 15.1549 20.6354 14.7862C21.2714 14.4175 21.7498 13.8282 21.98 13.13L22.36 12H24.92L25.3 13.14C25.5301 13.8382 26.0086 14.4275 26.6446 14.7962C27.2806 15.1649 28.0298 15.2872 28.75 15.14L29.93 14.9L31.21 17.12L30.41 18.02C29.9236 18.5688 29.655 19.2767 29.655 20.01C29.655 20.7433 29.9236 21.4512 30.41 22ZM23.64 16C22.8489 16 22.0755 16.2346 21.4177 16.6741C20.7599 17.1136 20.2472 17.7384 19.9445 18.4693C19.6417 19.2002 19.5625 20.0044 19.7168 20.7804C19.8712 21.5563 20.2522 22.269 20.8116 22.8284C21.371 23.3878 22.0837 23.7688 22.8596 23.9231C23.6356 24.0775 24.4398 23.9983 25.1707 23.6955C25.9016 23.3928 26.5263 22.8801 26.9659 22.2223C27.4054 21.5645 27.64 20.7911 27.64 20C27.64 18.9391 27.2186 17.9217 26.4684 17.1716C25.7183 16.4214 24.7009 16 23.64 16ZM23.64 22C23.2444 22 22.8577 21.8827 22.5288 21.6629C22.1999 21.4432 21.9436 21.1308 21.7922 20.7654C21.6409 20.3999 21.6012 19.9978 21.6784 19.6098C21.7556 19.2219 21.9461 18.8655 22.2258 18.5858C22.5055 18.3061 22.8618 18.1156 23.2498 18.0384C23.6378 17.9613 24.0399 18.0009 24.4054 18.1522C24.7708 18.3036 25.0832 18.56 25.3029 18.8889C25.5227 19.2178 25.64 19.6044 25.64 20C25.64 20.5304 25.4293 21.0391 25.0542 21.4142C24.6791 21.7893 24.1704 22 23.64 22Z" fill="#FAD4E8"/>
<defs>
<filter id="filter0_d_8_1229" x="0" y="0" width="48" height="48" filterUnits="userSpaceOnUse" color-interpolation-filters="sRGB">
<feFlood flood-opacity="0" result="BackgroundImageFix"/>
<feColorMatrix in="SourceAlpha" type="matrix" values="0 0 0 0 0 0 0 0 0 0 0 0 0 0 0 0 0 0 127 0" result="hardAlpha"/>
<feOffset dy="4"/>
<feGaussianBlur stdDeviation="2"/>
<feComposite in2="hardAlpha" operator="out"/>
<feColorMatrix type="matrix" values="0 0 0 0 0 0 0 0 0 0 0 0 0 0 0 0 0 0 0.25 0"/>
<feBlend mode="normal" in2="BackgroundImageFix" result="effect1_dropShadow_8_1229"/>
<feBlend mode="normal" in="SourceGraphic" in2="effect1_dropShadow_8_1229" result="shape"/>
</filter>
</defs>
</svg>
