<svg width="48" height="48" viewBox="0 0 48 48" fill="none" xmlns="http://www.w3.org/2000/svg">
<g filter="url(#filter0_d_8_1226)">
<circle cx="24" cy="20" r="20" fill="#FFF6FA" fill-opacity="0.9" shape-rendering="crispEdges"/>
<circle cx="24" cy="20" r="19.5" stroke="#EBCAD8" stroke-opacity="0.12" shape-rendering="crispEdges"/>
</g>
<path d="M33.33 20.91C33.42 22.46 32.71 23.95 31.44 24.86L32.21 26.35C32.44 26.8 32.47 27.33 32.27 27.8C32.08 28.27 31.69 28.64 31.21 28.8L30.42 29.05C30.091 29.1604 29.736 29.1668 29.4032 29.0684C29.0705 28.97 28.7761 28.7715 28.56 28.5L26.44 26C25.55 25.85 24.71 25.47 24 24.9C23.5 25.05 23 25.13 22.5 25.13C21.62 25.13 20.74 24.86 20 24.34C19.47 24.5 18.93 24.57 18.38 24.56C17.59 24.57 16.81 24.41 16.08 24.11C15.377 23.797 14.7763 23.2924 14.3465 22.654C13.9168 22.0156 13.6754 21.2691 13.65 20.5C13.57 19.78 13.69 19.05 14 18.39C13.71 17.64 13.68 16.82 13.93 16.06C14.3 15.11 15 14.32 15.87 13.82C16.45 12.13 18.08 11 19.87 11.12C21.47 9.62 23.92 9.46 25.7 10.75C26.12 10.64 26.56 10.58 27 10.58C28.36 10.55 29.65 11.15 30.5 12.22C32.54 12.75 34 14.57 34.08 16.69C34.13 17.8 33.83 18.89 33.22 19.82C33.29 20.18 33.33 20.54 33.33 20.91ZM28.33 19.5C28.9 19.57 29.35 20 29.35 20.57C29.35 20.8352 29.2446 21.0896 29.0571 21.2771C28.8696 21.4646 28.6152 21.57 28.35 21.57H27.72C27.4 22.47 26.84 23.26 26.1 23.86C26.35 23.95 26.61 24 26.87 24.07C32 24 31.4 20.87 31.4 20.82C31.3871 20.4798 31.3073 20.1455 31.1651 19.8361C31.0229 19.5268 30.8211 19.2486 30.5712 19.0173C30.3214 18.786 30.0284 18.6063 29.709 18.4884C29.3897 18.3704 29.0502 18.3166 28.71 18.33C28.4448 18.33 28.1904 18.2246 28.0029 18.0371C27.8154 17.8496 27.71 17.5952 27.71 17.33C27.71 17.0648 27.8154 16.8104 28.0029 16.6229C28.1904 16.4354 28.4448 16.33 28.71 16.33C29.94 16.36 31.12 16.82 32.04 17.63C32.09 17.34 32.12 17.04 32.12 16.74C32.06 15.5 31.5 14.42 29.25 14.21C28 11.25 24.85 12.89 24.85 13.81C24.82 14.04 25.06 14.53 25.1 14.56C25.3652 14.56 25.6196 14.6654 25.8071 14.8529C25.9946 15.0404 26.1 15.2948 26.1 15.56C26.1 16.11 25.65 16.56 25.1 16.56C24.57 16.54 24.07 16.34 23.67 16C23.19 16.31 22.64 16.5 22.07 16.56C21.5 16.61 21.03 16.21 21 15.66C20.9819 15.5294 20.9906 15.3965 21.0255 15.2694C21.0605 15.1423 21.121 15.0236 21.2033 14.9207C21.2857 14.8177 21.3882 14.7326 21.5045 14.6706C21.6209 14.6086 21.7486 14.571 21.88 14.56C22.04 14.54 22.82 14.42 22.82 13.79C22.82 13.13 23.07 12.5 23.5 12C22.58 11.75 21.59 12.08 20.59 13.29C18.75 13 18 13.25 17.45 15.2C16.5 15.67 16 16 15.78 17C16.86 16.78 17.97 16.87 19 17.25C19.5 17.44 19.78 18 19.59 18.54C19.4 19.06 18.82 19.32 18.3 19.13C17.57 18.81 16.75 18.79 16 19.07C15.68 19.34 15.68 19.9 15.68 20.34C15.68 21.08 16.05 21.77 16.68 22.17C17.21 22.44 17.8 22.58 18.39 22.57C18.24 22.31 18.11 22.04 18 21.76C17.9213 21.5031 17.9453 21.2256 18.0669 20.986C18.1885 20.7464 18.3984 20.5633 18.6522 20.4752C18.9061 20.3872 19.1842 20.401 19.4281 20.5138C19.672 20.6265 19.8627 20.8295 19.96 21.08C20.36 22.22 21.38 23 22.58 23.13C23.95 23.06 25.17 22.25 25.77 21C26 19.62 27.11 19.5 28.33 19.5ZM30.33 26.97L29.71 25.67L29 25.83L30 27.08L30.33 26.97ZM25.68 18.36C25.6887 18.1045 25.5992 17.8554 25.43 17.6639C25.2607 17.4723 25.0246 17.3529 24.77 17.33C24.06 17.29 23.37 17.53 22.84 18C22.27 18.58 21.97 19.38 22 20.19C22 20.4552 22.1054 20.7096 22.2929 20.8971C22.4804 21.0846 22.7348 21.19 23 21.19C23.57 21.19 24 20.74 24 20.19C24 19.92 24.07 19.65 24.23 19.43C24.35 19.33 24.5 19.28 24.66 19.28C25.21 19.31 25.68 18.9 25.68 18.36Z" fill="#FAD4E8"/>
<defs>
<filter id="filter0_d_8_1226" x="0" y="0" width="48" height="48" filterUnits="userSpaceOnUse" color-interpolation-filters="sRGB">
<feFlood flood-opacity="0" result="BackgroundImageFix"/>
<feColorMatrix in="SourceAlpha" type="matrix" values="0 0 0 0 0 0 0 0 0 0 0 0 0 0 0 0 0 0 127 0" result="hardAlpha"/>
<feOffset dy="4"/>
<feGaussianBlur stdDeviation="2"/>
<feComposite in2="hardAlpha" operator="out"/>
<feColorMatrix type="matrix" values="0 0 0 0 0 0 0 0 0 0 0 0 0 0 0 0 0 0 0.25 0"/>
<feBlend mode="normal" in2="BackgroundImageFix" result="effect1_dropShadow_8_1226"/>
<feBlend mode="normal" in="SourceGraphic" in2="effect1_dropShadow_8_1226" result="shape"/>
</filter>
</defs>
</svg>
