<svg width="48" height="48" viewBox="0 0 48 48" fill="none" xmlns="http://www.w3.org/2000/svg">
<g filter="url(#filter0_d_8_1227)">
<circle cx="24" cy="20" r="20" fill="#FFF6FA" fill-opacity="0.9" shape-rendering="crispEdges"/>
<circle cx="24" cy="20" r="19.5" stroke="#EBCAD8" stroke-opacity="0.12" shape-rendering="crispEdges"/>
</g>
<path d="M22 15H28M22 19H28M22 23H26M18 13C18 12.4696 18.2107 11.9609 18.5858 11.5858C18.9609 11.2107 19.4696 11 20 11H30C30.5304 11 31.0391 11.2107 31.4142 11.5858C31.7893 11.9609 32 12.4696 32 13V27C32 27.5304 31.7893 28.0391 31.4142 28.4142C31.0391 28.7893 30.5304 29 30 29H20C19.4696 29 18.9609 28.7893 18.5858 28.4142C18.2107 28.0391 18 27.5304 18 27V13Z" stroke="#FAD4E8" stroke-width="2" stroke-linecap="round" stroke-linejoin="round"/>
<defs>
<filter id="filter0_d_8_1227" x="0" y="0" width="48" height="48" filterUnits="userSpaceOnUse" color-interpolation-filters="sRGB">
<feFlood flood-opacity="0" result="BackgroundImageFix"/>
<feColorMatrix in="SourceAlpha" type="matrix" values="0 0 0 0 0 0 0 0 0 0 0 0 0 0 0 0 0 0 127 0" result="hardAlpha"/>
<feOffset dy="4"/>
<feGaussianBlur stdDeviation="2"/>
<feComposite in2="hardAlpha" operator="out"/>
<feColorMatrix type="matrix" values="0 0 0 0 0 0 0 0 0 0 0 0 0 0 0 0 0 0 0.25 0"/>
<feBlend mode="normal" in2="BackgroundImageFix" result="effect1_dropShadow_8_1227"/>
<feBlend mode="normal" in="SourceGraphic" in2="effect1_dropShadow_8_1227" result="shape"/>
</filter>
</defs>
</svg>
