<svg width="34" height="34" viewBox="0 0 34 34" fill="none" xmlns="http://www.w3.org/2000/svg">
<path d="M11.6131 20.8888C11.945 21.1255 12.3427 21.2526 12.7504 21.2522C13.1581 21.2519 13.5554 21.124 13.8869 20.8866C14.2182 20.639 14.4701 20.3 14.6115 19.9113L15.3489 17.6439C15.5258 17.1097 15.825 16.6242 16.2227 16.2261C16.6204 15.828 17.1056 15.5284 17.6396 15.351L19.9474 14.6009C20.3344 14.4621 20.668 14.2051 20.901 13.8664C21.1341 13.5277 21.2548 13.1243 21.2461 12.7132C21.2374 12.3022 21.0998 11.9042 20.8526 11.5756C20.6055 11.2471 20.2613 11.0045 19.8688 10.8821L17.5971 10.1469C17.0626 9.97029 16.5766 9.6712 16.1782 9.27347C15.7797 8.87574 15.4797 8.39039 15.3021 7.85613L14.552 5.55263C14.4159 5.17224 14.1652 4.84337 13.8346 4.61125C13.5039 4.37912 13.1094 4.25515 12.7054 4.25638C12.2956 4.25464 11.8956 4.38171 11.562 4.61965C11.2283 4.85759 10.9779 5.19437 10.846 5.58238L10.0895 7.89863C9.91186 8.41705 9.61926 8.88857 9.2336 9.27791C8.84794 9.66725 8.37922 9.96432 7.86251 10.1469L5.55901 10.8928C5.17419 11.0287 4.84138 11.2814 4.60695 11.6155C4.37253 11.9496 4.24817 12.3485 4.25121 12.7567C4.25425 13.1648 4.38454 13.5618 4.62392 13.8924C4.86329 14.223 5.19983 14.4706 5.58664 14.6009L7.85401 15.3383C8.38933 15.5171 8.87563 15.8182 9.27435 16.2177C9.67308 16.6171 9.97327 17.104 10.1511 17.6396L10.8991 19.9346C11.033 20.3171 11.2838 20.6508 11.6153 20.8866M8.51489 13.3089L6.69801 12.7458L8.53401 12.1486C9.3725 11.8597 10.1326 11.3804 10.7546 10.7483C11.3751 10.1108 11.8426 9.34576 12.1231 8.50426L12.6863 6.67888L13.2813 8.51063C13.5631 9.36091 14.04 10.1334 14.674 10.7662C15.3079 11.3991 16.0812 11.8747 16.932 12.155L18.802 12.7266L16.9745 13.3216C16.1231 13.6026 15.3493 14.0792 14.7153 14.7132C14.0813 15.3472 13.6047 16.1209 13.3238 16.9724L12.7606 18.7935L12.1678 16.9681C11.8875 16.1153 11.4109 15.3401 10.7765 14.7049C10.1421 14.0697 9.36742 13.5902 8.51489 13.3089ZM22.3848 29.4334C22.6733 29.6386 23.0188 29.7485 23.3729 29.7479C23.7297 29.7443 24.0766 29.6299 24.3656 29.4205C24.6545 29.2111 24.8712 28.9171 24.9858 28.5791L25.5128 26.9599C25.6254 26.6241 25.8166 26.316 26.0653 26.0653C26.3139 25.8145 26.622 25.6254 26.9578 25.5149L28.5983 24.9794C28.9376 24.863 29.2314 24.6423 29.4377 24.3489C29.6439 24.0554 29.7521 23.7042 29.7467 23.3456C29.7413 22.9869 29.6225 22.6392 29.4075 22.3521C29.1924 22.065 28.8921 21.8533 28.5494 21.7473L26.9259 21.2181C26.5902 21.1057 26.2851 20.9171 26.0345 20.6672C25.7838 20.4172 25.5943 20.1127 25.4809 19.7774L24.9454 18.1326C24.8302 17.7949 24.6116 17.5019 24.3206 17.2953C24.0296 17.0887 23.681 16.9789 23.3241 16.9815C22.9672 16.9841 22.6202 17.0989 22.3322 17.3097C22.0443 17.5205 21.8299 17.8166 21.7196 18.156L21.1948 19.7753C21.0865 20.1081 20.9029 20.4115 20.6581 20.6618C20.4134 20.9121 20.1141 21.1025 19.7838 21.2181L18.1348 21.7558C17.8852 21.8425 17.6592 21.9863 17.4749 22.1757C17.2905 22.365 17.1529 22.5948 17.0729 22.8466C16.9928 23.0985 16.9726 23.3655 17.0138 23.6266C17.055 23.8876 17.1565 24.1354 17.3103 24.3504C17.5206 24.6479 17.8181 24.871 18.1603 24.9879L19.7816 25.5128C20.1184 25.6263 20.4243 25.8165 20.675 26.0683C20.9258 26.3202 21.1146 26.6268 21.2266 26.9641L21.7643 28.6089C21.8807 28.9414 22.0975 29.2295 22.3848 29.4334ZM20.4425 23.4983L20.0643 23.3729L20.4553 23.2369C21.0997 23.0138 21.6841 22.6453 22.1631 22.16C22.6422 21.6746 23.0031 21.0855 23.2178 20.4383L23.341 20.06L23.4685 20.4446C23.6855 21.0959 24.0511 21.6877 24.5365 22.1731C25.0219 22.6585 25.6137 23.0242 26.265 23.2411L26.6794 23.375L26.2969 23.5004C25.6441 23.7181 25.0511 24.0853 24.5653 24.5726C24.0794 25.06 23.714 25.654 23.4983 26.3075L23.3729 26.6921L23.2496 26.3075C23.035 25.6522 22.6693 25.0564 22.1821 24.5684C21.6948 24.0805 21.0997 23.7139 20.4446 23.4983" fill="#FAD4E8"/>
</svg>
